<?xml version="1.0" encoding="UTF-8" standalone="no"?>
<!-- Created with Inkscape (http://www.inkscape.org/) -->

<svg
   xmlns:dc="http://purl.org/dc/elements/1.1/"
   xmlns:cc="http://creativecommons.org/ns#"
   xmlns:rdf="http://www.w3.org/1999/02/22-rdf-syntax-ns#"
   xmlns:svg="http://www.w3.org/2000/svg"
   xmlns="http://www.w3.org/2000/svg"
   xmlns:sodipodi="http://sodipodi.sourceforge.net/DTD/sodipodi-0.dtd"
   xmlns:inkscape="http://www.inkscape.org/namespaces/inkscape"
   width="210mm"
   height="297mm"
   viewBox="0 0 744.09448819 1052.3622047"
   id="svg2"
   version="1.1"
   inkscape:version="0.92.3 (2405546, 2018-03-11)"
   sodipodi:docname="frame.svg">
  <defs
     id="defs4" />
  <sodipodi:namedview
     id="base"
     pagecolor="#ffffff"
     bordercolor="#666666"
     borderopacity="1.0"
     inkscape:pageopacity="0.0"
     inkscape:pageshadow="2"
     inkscape:zoom="0.7"
     inkscape:cx="186.60724"
     inkscape:cy="876.80144"
     inkscape:document-units="px"
     inkscape:current-layer="layer1"
     showgrid="false"
     inkscape:window-width="1920"
     inkscape:window-height="1177"
     inkscape:window-x="-8"
     inkscape:window-y="-8"
     inkscape:window-maximized="1" />
  <metadata
     id="metadata7">
    <rdf:RDF>
      <cc:Work
         rdf:about="">
        <dc:format>image/svg+xml</dc:format>
        <dc:type
           rdf:resource="http://purl.org/dc/dcmitype/StillImage" />
        <dc:title />
      </cc:Work>
    </rdf:RDF>
  </metadata>
  <g
     inkscape:label="Calque 1"
     inkscape:groupmode="layer"
     id="layer1">
    <g
       class="frame"
       fill="url(#arcenciel)"
       id="g17470">
      <path
         class="framePath"
         d="m 145.19056,101.37114 -52.250005,-124.450002 -14.25,-14.25 -14.25,9.5 -66.4999992,133.000002 -14.2500008,14.25 -25.65,-2.85 -12.35,-11.4 -112.099995,-4.75 -2.85,-4.750002 v -3.8 l 2.85,-4.75 97.849995,-70.3 2.85,-4.75 -23.75,-77.9 -32.299995,-14.25 v -2.85 l 10.45,-0.95 14.25,0.95 h 9.499995 l 19,-1.9 h 14.25 l 7.6,1.9 v 2.85 h -19 l -17.1,12.35 21.85,65.5499996 25.65,1.90000001 66.5,-42.74999961 38,-18.05 -0.95,-3.8 1.9,-0.95 -5.7,-14.25 23.75,-12.35 4.75,9.5 -17.1,9.5 1.9,4.75 2.85,-0.95 9.5,19 4.75,13.3 h 4.750003 l 52.250002,126.35 h 9.5 l 5.7,8.55 -5.7,7.600002 z m -90.250005,-143.450002 -7.6,2.85 -11.4,3.8 -66.5,45.6 -23.75,2.85 -0.95,2.85 10.45,34.2 12.35,19 v 9.5 l 6.65,4.75 9.5,-2.85 9.5000008,0.95 h 2.85 l 56.9999992,-114 5.7,-7.6 z m -115.9,69.35 -2.85,11.4 v 14.25 l 8.55,28.5 h 1.9 l 3.8,-12.35 -3.8,-9.5 -1.9,-19 z m -10.45,0 -77.899995,57 v 6.65 h 88.349995 l -12.35,-47.5 z"
         id="path17468"
         style="fill:#3590ff;fill-opacity:1;stroke:#002c64;stroke-width:0.94999999;stroke-opacity:1"
         inkscape:export-filename="W:\node\mudsim\static\frame.png"
         inkscape:export-xdpi="96"
         inkscape:export-ydpi="96"
         inkscape:connector-curvature="0" />
    </g>
  </g>
</svg>
