<?xml version="1.0" encoding="UTF-8" standalone="no"?>
<!-- Created with Inkscape (http://www.inkscape.org/) -->

<svg
   xmlns:dc="http://purl.org/dc/elements/1.1/"
   xmlns:cc="http://creativecommons.org/ns#"
   xmlns:rdf="http://www.w3.org/1999/02/22-rdf-syntax-ns#"
   xmlns:svg="http://www.w3.org/2000/svg"
   xmlns="http://www.w3.org/2000/svg"
   xmlns:sodipodi="http://sodipodi.sourceforge.net/DTD/sodipodi-0.dtd"
   xmlns:inkscape="http://www.inkscape.org/namespaces/inkscape"
   width="218"
   height="218"
   viewBox="0 0 218 218"
   id="svg2"
   version="1.1"
   inkscape:version="0.92.3 (2405546, 2018-03-11)"
   sodipodi:docname="wheel.svg"
   inkscape:export-filename="W:\node\mudsim\static\wheel.png"
   inkscape:export-xdpi="96"
   inkscape:export-ydpi="96">
  <defs
     id="defs4" />
  <sodipodi:namedview
     id="base"
     pagecolor="#ffffff"
     bordercolor="#666666"
     borderopacity="1.0"
     inkscape:pageopacity="0.0"
     inkscape:pageshadow="2"
     inkscape:zoom="3.959798"
     inkscape:cx="128.56013"
     inkscape:cy="121.07703"
     inkscape:document-units="px"
     inkscape:current-layer="layer1"
     showgrid="false"
     inkscape:window-width="1920"
     inkscape:window-height="1137"
     inkscape:window-x="1912"
     inkscape:window-y="-8"
     inkscape:window-maximized="1" />
  <metadata
     id="metadata7">
    <rdf:RDF>
      <cc:Work
         rdf:about="">
        <dc:format>image/svg+xml</dc:format>
        <dc:type
           rdf:resource="http://purl.org/dc/dcmitype/StillImage" />
        <dc:title />
      </cc:Work>
    </rdf:RDF>
  </metadata>
  <g
     inkscape:label="Calque 1"
     inkscape:groupmode="layer"
     id="layer1">
    <g
       class="wheel"
       id="g8480"
       style="fill:#666666;stroke:#000000;stroke-width:1.00031245;stroke-miterlimit:4;stroke-dasharray:none">
      <path
         d="m 208.98,110.99987 -0.0571,1.92611 1.95332,1.09752 -0.19065,2.97933 -2.17069,1.83521 -0.20804,1.9157 1.86119,1.24739 -0.42382,2.95518 -2.30798,1.65925 -0.35771,1.89347 1.75758,1.38957 -0.65437,2.91283 -2.43105,1.47305 -0.50516,1.85956 1.64314,1.52319 -0.8809,2.8525 -2.53913,1.27778 -0.6495,1.8142 1.51856,1.6474 -1.10198,2.7746 -2.63155,1.07462 -0.78985,1.75764 1.38463,1.76148 -1.31628,2.67958 -2.70775,0.86483 -0.92531,1.69026 1.24215,1.86469 -1.52246,2.56804 -2.76726,0.64972 -1.05507,1.61245 1.09202,1.95639 -1.71925,2.44069 -2.80971,0.4306 -1.17833,1.52469 0.93516,2.03604 -1.90545,2.29827 -2.83482,0.20883 -1.29433,1.42754 0.77253,2.10314 -2.07989,2.14168 -2.84248,-0.0142 -1.40234,1.3216 0.60514,2.15726 -2.24151,1.97189 -2.8326,-0.23721 -1.50171,1.2075 0.43402,2.19809 -2.38932,1.78995 -2.80525,-0.45872 -1.59182,1.08595 0.26022,2.22537 -2.52239,1.59696 -2.76061,-0.6774 -1.67212,0.95771 0.0848,2.23892 -2.63991,1.39414 -2.69896,-0.89191 -1.7421,0.82356 -0.0911,2.23868 -2.74116,1.18272 -2.62065,-1.10092 -1.80135,0.68434 -0.26647,2.22463 -2.8255,0.964 -2.5262,-1.30314 -1.84949,0.5409 -0.44019,2.19687 -2.89243,0.73934 -2.41617,-1.49733 -1.88622,0.39412 -0.6112,2.15557 -2.94152,0.51012 -2.29124,-1.68229 -1.91134,0.24492 -0.77843,2.10096 -2.97248,0.27777 -2.15219,-1.85687 -1.92465,0.0942 -0.94088,2.03341 L 109,211 l -1.99987,-2.02 -1.92611,-0.0571 -1.09752,1.95332 -2.97933,-0.19065 -1.835212,-2.17069 -1.915698,-0.20804 -1.247388,1.86119 -2.955187,-0.42382 -1.659248,-2.30798 -1.893469,-0.35771 -1.38957,1.75758 -2.912825,-0.65437 -1.473051,-2.43105 -1.859567,-0.50516 -1.523185,1.64314 -2.852503,-0.8809 -1.277773,-2.53913 -1.8142,-0.6495 -1.647408,1.51856 -2.774596,-1.10198 -1.074616,-2.63155 -1.757648,-0.78985 -1.761475,1.38463 -2.679582,-1.31628 -0.864834,-2.70775 -1.690259,-0.92531 -1.864682,1.24215 -2.568048,-1.52246 -0.649719,-2.76726 -1.61245,-1.05507 -1.956392,1.09202 -2.440681,-1.71925 -0.4306,-2.80971 -1.524699,-1.17833 -2.03604,0.93516 -2.298266,-1.90545 -0.208826,-2.83482 -1.427548,-1.29433 -2.103136,0.77253 -2.141681,-2.07989 0.01424,-2.84248 -1.321595,-1.40234 -2.157265,0.60514 -1.971892,-2.24151 0.23721,-2.8326 -1.207495,-1.50171 -2.198094,0.43402 -1.789946,-2.38932 0.458721,-2.80525 -1.085949,-1.59182 -2.225371,0.26022 -1.596965,-2.52239 0.677405,-2.76061 -0.957709,-1.67212 -2.238927,0.0848 -1.394137,-2.63991 0.891912,-2.69896 -0.823564,-1.7421 -2.238681,-0.0911 -1.182714,-2.74116 1.10092,-2.62065 -0.684342,-1.80135 -2.224631,-0.26647 -0.964,-2.8255 1.303141,-2.5262 -0.5409,-1.84949 -2.196866,-0.44019 -0.739342,-2.89243 1.497327,-2.41617 -0.394123,-1.88622 -2.155566,-0.6112 -0.51012,-2.94152 1.682285,-2.29124 L 9.693158,120.75373 7.5922,119.9753 7.31443,117.00282 9.171301,114.85063 9.077101,112.92598 7.04369,111.9851 7,109 l 2.019999,-1.99987 0.0571,-1.92611 -1.953319,-1.09752 0.19065,-2.97933 2.170685,-1.835212 0.208042,-1.915698 -1.861187,-1.247388 0.42382,-2.955187 2.30798,-1.659248 0.357705,-1.893469 -1.75758,-1.38957 0.654376,-2.912825 2.431046,-1.473051 0.505162,-1.859567 -1.643137,-1.523185 0.880896,-2.852503 2.539127,-1.277773 0.649504,-1.8142 -1.518564,-1.647408 1.101986,-2.774596 2.631552,-1.074616 0.789843,-1.757648 -1.384629,-1.761475 1.316281,-2.679582 2.707753,-0.864834 0.925311,-1.690259 -1.242157,-1.864682 1.522461,-2.568048 2.76726,-0.649719 1.055076,-1.61245 -1.092027,-1.956392 1.719255,-2.440681 2.809705,-0.4306 1.178335,-1.524699 -0.935164,-2.03604 1.905449,-2.298266 2.834829,-0.208826 1.294328,-1.427548 -0.772535,-2.103136 2.079894,-2.141681 2.842475,0.01424 1.402342,-1.321595 -0.605143,-2.157265 2.241517,-1.971892 2.832595,0.23721 1.501711,-1.207495 -0.434021,-2.198094 2.38932,-1.789946 2.805252,0.458721 1.591821,-1.085949 -0.260223,-2.225371 2.522392,-1.596965 2.760614,0.677405 1.672116,-0.957709 -0.08482,-2.238927 2.639913,-1.394137 2.698955,0.891912 1.742102,-0.823564 0.09111,-2.238681 2.741157,-1.182714 2.620656,1.10092 1.801348,-0.684342 0.266471,-2.224631 2.825502,-0.964 2.5262,1.303141 1.849488,-0.5409 0.440191,-2.196866 2.892427,-0.739342 2.41617,1.497327 1.886225,-0.394123 0.611198,-2.155566 2.941519,-0.51012 2.291242,1.682285 1.911333,-0.244917 0.778438,-2.100958 2.972476,-0.27777 2.15219,1.856871 1.92465,-0.0942 L 106.0149,7.04369 109,7 l 1.99987,2.019999 1.92611,0.0571 1.09752,-1.953319 2.97933,0.19065 1.83521,2.170685 1.9157,0.208042 1.24739,-1.861187 2.95518,0.42382 1.65925,2.30798 1.89347,0.357705 1.38957,-1.75758 2.91283,0.654376 1.47305,2.431046 1.85956,0.505162 1.52319,-1.643137 2.8525,0.880896 1.27778,2.539127 1.8142,0.649504 1.6474,-1.518564 2.7746,1.101986 1.07462,2.631552 1.75764,0.789843 1.76148,-1.384629 2.67958,1.316281 0.86483,2.707753 1.69026,0.925311 1.86469,-1.242157 2.56804,1.522461 0.64972,2.76726 1.61245,1.055076 1.95639,-1.092027 2.44069,1.719255 0.4306,2.809705 1.52469,1.178335 2.03604,-0.935164 2.29827,1.905449 0.20883,2.834829 1.42754,1.294328 2.10314,-0.772535 2.14168,2.079894 -0.0142,2.842475 1.3216,1.402342 2.15726,-0.605143 1.97189,2.241517 -0.23721,2.832595 1.2075,1.501711 2.19809,-0.434021 1.78995,2.38932 -0.45872,2.805252 1.08595,1.591821 2.22537,-0.260223 1.59696,2.522392 -0.6774,2.760614 0.95771,1.672116 2.23892,-0.08482 1.39414,2.639913 -0.89191,2.698955 0.82356,1.742102 2.23868,0.09111 1.18272,2.741157 -1.10092,2.620656 0.68434,1.801348 2.22463,0.266471 0.964,2.825502 -1.30314,2.5262 0.5409,1.849488 2.19687,0.440191 0.73934,2.892427 -1.49733,2.41617 0.39412,1.886225 2.15557,0.611198 0.51012,2.941519 -1.68229,2.291242 0.24492,1.911333 2.10096,0.778438 0.27777,2.972476 -1.85687,2.15219 0.0942,1.92465 2.03341,0.94088 L 211,109 l -2.02,1.99987 M 109,24 a 85,85 0 0 0 0,170 85,85 0 0 0 0,-170 z"
         id="path8476"
         style="fill:#666666;stroke:#000000;stroke-width:1.00031245;stroke-miterlimit:4;stroke-dasharray:none"
         inkscape:connector-curvature="0" />
      <path
         d="M 194,109 25.633251,125.58268 M 187.52976,141.52809 25.633251,92.417323 M 169.10408,169.10408 38.325083,61.77653 M 141.52809,187.52976 61.77653,38.325083 M 109,194 92.417323,25.633251 M 76.471908,187.52976 125.58268,25.633251 M 48.895924,169.10408 156.22347,38.325083 M 30.47024,141.52809 179.67492,61.77653 M 24,109 192.36675,92.417323 M 30.47024,76.471908 192.36675,125.58268 M 48.895924,48.895924 179.67492,156.22347 M 76.471908,30.47024 156.22347,179.67492 M 109,24 125.58268,192.36675 M 141.52809,30.47024 92.417323,192.36675 M 169.10408,48.895924 61.77653,179.67492 M 187.52976,76.471908 38.325083,156.22347"
         class="sprokes"
         id="path8478"
         style="fill:none;stroke:#474747;stroke-width:1.00031245;stroke-miterlimit:4;stroke-dasharray:none;stroke-opacity:1"
         inkscape:connector-curvature="0" />
    </g>
  </g>
</svg>
