<?xml version="1.0" encoding="UTF-8" standalone="no"?><!DOCTYPE svg PUBLIC "-//W3C//DTD SVG 1.1//EN" "http://www.w3.org/Graphics/SVG/1.1/DTD/svg11.dtd"><svg width="100%" height="100%" viewBox="0 0 360 227" version="1.1" xmlns="http://www.w3.org/2000/svg" xmlns:xlink="http://www.w3.org/1999/xlink" xml:space="preserve" xmlns:serif="http://www.serif.com/" style="fill-rule:evenodd;clip-rule:evenodd;stroke-linejoin:round;stroke-miterlimit:1.41421;"><rect id="collisions" x="0" y="0" width="360" height="227" style="fill:none;"/><clipPath id="_clip1"><rect id="collisions1" serif:id="collisions" x="0" y="0" width="360" height="227"/></clipPath><g clip-path="url(#_clip1)"><path id="moto-line" d="M199.909,182.92L232.167,121.271L280.912,78.261L294.532,70.854L290.709,56.756L322.391,44.978L351.907,43.287L360,46.898" style="fill:none;"/><path id="moto-shape" d="M208.541,176.432L199.247,182.495L232.247,121.495L260.247,94.495L280.247,78.495L294.247,70.495L290.247,56.495L322.371,45.048L351.558,43.287L360.195,46.92L323.392,50.831L295.247,61.495L299.247,76.495L284.008,84.778L265.769,99.256L237.814,125.539L208.541,176.432Z" style="fill:#f00;fill-opacity:0.388235;"/><path id="fork-line" d="M251.929,120.191L335.652,85.738" style="fill:none;"/><path id="fork-shape" d="M251.929,120.191L335.652,85.738L311.541,102.508L279.999,116.128L251.929,120.191" style="fill:#f00;fill-opacity:0.407843;"/><path id="noguard-line" d="M278.662,64.062L280.191,63.909" style="fill:none;"/><path id="noguard-shape" d="M287.531,59.322L291.966,68.803L280.344,73.238L265.357,58.863L287.531,59.322Z" style="fill:#f00;fill-opacity:0.411765;"/><path id="frame" d="M275.252,0L281,10L263,20L264,25L268,24L278,45L283,58L289,59L292,70L280,74L266,59L251,69L180,211L164,226.78L137,223L123,211L115,195L103,145L105,128L108,117L111,113.39L86,28L51,13L51,10L62,8L77,9L90,10L106,8L123,7L131,10L131.037,13.206L111.103,12.957L93.162,26.164L116.086,96.309L143.246,98.425L215.508,52.327L255.376,33.39L254.628,28.905L256.622,27.409L250.392,13.206L275.252,0Z" style="fill:#f00;fill-opacity:0.388235;"/></g></svg>